<?xml version="1.0" encoding="UTF-8"?>
<svg width="3300px" height="2200px" viewBox="0 0 3300 2200" version="1.1" xmlns="http://www.w3.org/2000/svg" xmlns:xlink="http://www.w3.org/1999/xlink">
    <title>home</title>
    <g id="Page-1" stroke="none" stroke-width="1" fill="none" fill-rule="evenodd">
        <g id="house">
            <g id="Notes">
                <rect id="artboard" fill="#FFFFFF" fill-rule="nonzero" x="0" y="0" width="3300" height="2200"></rect>
                <line x1="263" y1="292" x2="3036" y2="292" id="Path" stroke="#000000" stroke-width="0.5"></line>
                <text id="Weight/Scale-Variations" fill="#000000" fill-rule="nonzero" font-family="Helvetica-Bold, Helvetica" font-size="13" font-weight="bold">
                    <tspan x="263" y="322">Weight/Scale Variations</tspan>
                </text>
                <text id="Ultralight" fill="#000000" fill-rule="nonzero" font-family="Helvetica" font-size="13" font-weight="normal">
                    <tspan x="533.711" y="322">Ultralight</tspan>
                </text>
                <text id="Thin" fill="#000000" fill-rule="nonzero" font-family="Helvetica" font-size="13" font-weight="normal">
                    <tspan x="843.422" y="322">Thin</tspan>
                </text>
                <text id="Light" fill="#000000" fill-rule="nonzero" font-family="Helvetica" font-size="13" font-weight="normal">
                    <tspan x="1138.63" y="322">Light</tspan>
                </text>
                <text id="Regular" fill="#000000" fill-rule="nonzero" font-family="Helvetica" font-size="13" font-weight="normal">
                    <tspan x="1426.84" y="322">Regular</tspan>
                </text>
                <text id="Medium" fill="#000000" fill-rule="nonzero" font-family="Helvetica" font-size="13" font-weight="normal">
                    <tspan x="1723.06" y="322">Medium</tspan>
                </text>
                <text id="Semibold" fill="#000000" fill-rule="nonzero" font-family="Helvetica" font-size="13" font-weight="normal">
                    <tspan x="2015.77" y="322">Semibold</tspan>
                </text>
                <text id="Bold" fill="#000000" fill-rule="nonzero" font-family="Helvetica" font-size="13" font-weight="normal">
                    <tspan x="2326.48" y="322">Bold</tspan>
                </text>
                <text id="Heavy" fill="#000000" fill-rule="nonzero" font-family="Helvetica" font-size="13" font-weight="normal">
                    <tspan x="2618.19" y="322">Heavy</tspan>
                </text>
                <text id="Black" fill="#000000" fill-rule="nonzero" font-family="Helvetica" font-size="13" font-weight="normal">
                    <tspan x="2917.4" y="322">Black</tspan>
                </text>
                <line x1="263" y1="1903" x2="3036" y2="1903" id="Path" stroke="#000000" stroke-width="0.5"></line>
                <g id="Group" transform="translate(264.367190, 1918.068400)" fill="#000000" fill-rule="nonzero">
                    <path d="M7.88086,15.761678 C12.18751,15.761678 15.77151,12.18746 15.77151,7.88082 C15.77151,3.5742 12.17771,0 7.87109,0 C3.57422,0 -8.8817842e-16,3.5742 -8.8817842e-16,7.88082 C-8.8817842e-16,12.18746 3.58398,15.761678 7.88086,15.761678 Z M7.88086,14.277303 C4.33593,14.277303 1.5039,11.43551 1.5039,7.88082 C1.5039,4.3261 4.32617,1.4843 7.87109,1.4843 C11.42581,1.4843 14.26761,4.3261 14.2773352,7.88082 C14.28711,11.43551 11.43551,14.277303 7.88086,14.277303 Z M5.02929,8.61324 L7.13867,8.61324 L7.13867,10.73238 C7.13867,11.17183 7.43164,11.47457 7.86133,11.47457 C8.31054,11.47457 8.60351,11.17183 8.60351,10.73238 L8.60351,8.61324 L10.73241,8.61324 C11.17191,8.61324 11.47461,8.32027 11.47461,7.89058 C11.47461,7.45113 11.17191,7.1484 10.73241,7.1484 L8.60351,7.1484 L8.60351,5.03902 C8.60351,4.5898 8.31054,4.2871 7.86133,4.2871 C7.43164,4.2871 7.13867,4.5898 7.13867,5.03902 L7.13867,7.1484 L5.02929,7.1484 C4.58008,7.1484 4.27734,7.45113 4.27734,7.89058 C4.27734,8.32027 4.58008,8.61324 5.02929,8.61324 Z" id="Shape"></path>
                </g>
                <g id="Group" transform="translate(283.254050, 1915.988300)" fill="#000000" fill-rule="nonzero">
                    <path d="M9.96095,19.92186 C15.41015,19.92186 19.92185,15.40037 19.92185,9.96092 C19.92185,4.5117 15.40035,0 9.95115,0 C4.51172,0 8.8817842e-16,4.5117 8.8817842e-16,9.96092 C8.8817842e-16,15.40037 4.52148,19.92186 9.96095,19.92186 Z M9.96095,18.2617 C5.35156,18.2617 1.66992,14.57029 1.66992,9.96092 C1.66992,5.3515 5.34179,1.6601 9.95115,1.6601 C14.56055,1.6601 18.25195,5.3515 18.261769,9.96092 C18.27145,14.57029 14.57035,18.2617 9.96095,18.2617 Z M6.24023,10.78123 L9.13085,10.78123 L9.13085,13.69139 C9.13085,14.17967 9.46285,14.5117 9.94145,14.5117 C10.42965,14.5117 10.77145,14.17967 10.77145,13.69139 L10.77145,10.78123 L13.68165,10.78123 C14.16995,10.78123 14.50195,10.4492 14.50195,9.97068 C14.50195,9.4824 14.16995,9.14061 13.68165,9.14061 L10.77145,9.14061 L10.77145,6.25 C10.77145,5.7422 10.42965,5.4101 9.94145,5.4101 C9.46285,5.4101 9.13085,5.7519 9.13085,6.25 L9.13085,9.14061 L6.24023,9.14061 C5.73242,9.14061 5.40039,9.4824 5.40039,9.97068 C5.40039,10.4492 5.74218,10.78123 6.24023,10.78123 Z" id="Shape"></path>
                </g>
                <g id="Group" transform="translate(307.179860, 1913.224600)" fill="#000000" fill-rule="nonzero">
                    <path d="M12.71484,25.43946 C19.67774,25.43946 25.43944,19.6777438 25.43944,12.72462 C25.43944,5.7617 19.66794,0 12.70504,0 C5.75195,0 0,5.7617 0,12.72462 C0,19.6777438 5.76172,25.43946 12.71484,25.43946 Z M12.71484,23.62306 C6.67969,23.62306 1.82617,18.75978 1.82617,12.72462 C1.82617,6.6797 6.66992,1.8262 12.70504,1.8262 C18.75004,1.8262 23.60354,6.6797 23.6132548,12.72462 C23.62304,18.75978 18.75974,23.62306 12.71484,23.62306 Z M7.80274,13.63282 L11.80664,13.63282 L11.80664,17.64649 C11.80664,18.1836 12.17774,18.5547 12.69534,18.5547 C13.23244,18.5547 13.60354,18.1836 13.60354,17.64649 L13.60354,13.63282 L17.62694,13.63282 C18.15434,13.63282 18.53514,13.26173 18.53514,12.74415 C18.53514,12.20704 18.16404,11.82618 17.62694,11.82618 L13.60354,11.82618 L13.60354,7.8223 C13.60354,7.2656 13.23244,6.8945 12.69534,6.8945 C12.17774,6.8945 11.80664,7.2754 11.80664,7.8223 L11.80664,11.82618 L7.80274,11.82618 C7.24609,11.82618 6.875,12.20704 6.875,12.74415 C6.875,13.26173 7.25586,13.63282 7.80274,13.63282 Z" id="Shape"></path>
                </g>
                <text id="Design-Variations" fill="#000000" fill-rule="nonzero" font-family="Helvetica-Bold, Helvetica" font-size="13" font-weight="bold">
                    <tspan x="263" y="1953">Design Variations</tspan>
                </text>
                <text id="Symbols-are-supported-in-up-to-nine-weights-and-three-scales." fill="#000000" fill-rule="nonzero" font-family="Helvetica" font-size="13" font-weight="normal">
                    <tspan x="263" y="1971">Symbols are supported in up to nine weights and three scales.</tspan>
                </text>
                <text id="For-optimal-layout-with-text-and-other-symbols,-vertically-align" fill="#000000" fill-rule="nonzero" font-family="Helvetica" font-size="13" font-weight="normal">
                    <tspan x="263" y="1989">For optimal layout with text and other symbols, vertically align</tspan>
                </text>
                <text id="symbols-with-the-adjacent-text." fill="#000000" fill-rule="nonzero" font-family="Helvetica" font-size="13" font-weight="normal">
                    <tspan x="263" y="2007">symbols with the adjacent text.</tspan>
                </text>
                <line x1="776" y1="1919" x2="776" y2="1933" id="Path" stroke="#00AEEF" stroke-width="0.5"></line>
                <g id="Group" transform="translate(778.490230, 1918.712900)" fill="#000000" fill-rule="nonzero">
                    <path d="M0.82032,14.414053 C1.33789,14.414053 1.5918,14.2187406 1.77735,13.681631 L3.03711,10.2246 L8.79887,10.2246 L10.05857,13.681631 C10.24417,14.2187406 10.49807,14.414053 11.00587,14.414053 C11.52347,14.414053 11.85547,14.101553 11.85547,13.613272 C11.85547,13.447256 11.82617,13.300772 11.74807,13.08593 L7.16797,0.8984 C6.94336,0.293 6.54297,0 5.91797,0 C5.3125,0 4.90235,0.293 4.6875,0.8887 L0.10743,13.09569 C0.0293,13.310538 -4.4408921e-16,13.457022 -4.4408921e-16,13.623038 C-4.4408921e-16,14.111319 0.3125,14.414053 0.82032,14.414053 Z M3.51563,8.74999 L5.88868,2.1777 L5.9375,2.1777 L8.31057,8.74999 L3.51563,8.74999 Z" id="Shape"></path>
                </g>
                <line x1="792.836" y1="1919" x2="792.836" y2="1933" id="Path" stroke="#00AEEF" stroke-width="0.5"></line>
                <text id="Margins" fill="#000000" fill-rule="nonzero" font-family="Helvetica-Bold, Helvetica" font-size="13" font-weight="bold">
                    <tspan x="776" y="1953">Margins</tspan>
                </text>
                <text id="Leading-and-trailing-margins-on-the-left-and-right-side-of-each-symbol" fill="#000000" fill-rule="nonzero" font-family="Helvetica" font-size="13" font-weight="normal">
                    <tspan x="776" y="1971">Leading and trailing margins on the left and right side of each symbol</tspan>
                </text>
                <text id="can-be-adjusted-by-modifying-the-x-location-of-the-margin-guidelines." fill="#000000" fill-rule="nonzero" font-family="Helvetica" font-size="13" font-weight="normal">
                    <tspan x="776" y="1989">can be adjusted by modifying the x-location of the margin guidelines.</tspan>
                </text>
                <text id="Modifications-are-automatically-applied-proportionally-to-all" fill="#000000" fill-rule="nonzero" font-family="Helvetica" font-size="13" font-weight="normal">
                    <tspan x="776" y="2007">Modifications are automatically applied proportionally to all</tspan>
                </text>
                <text id="scales-and-weights." fill="#000000" fill-rule="nonzero" font-family="Helvetica" font-size="13" font-weight="normal">
                    <tspan x="776" y="2025">scales and weights.</tspan>
                </text>
                <g id="Group" transform="translate(1291.248126, 1914.517396)" fill="#000000" fill-rule="nonzero">
                    <path d="M0.593673634,20.347834 L2.29289363,22.056824 C3.15226363,22.925964 4.13859363,22.867374 5.06632363,21.841984 L15.2420736,10.631044 C15.5057736,10.718934 15.7791736,10.699404 16.0916736,10.640804 L17.1561736,10.445494 L17.8202736,11.119324 L17.7811736,11.675964 C17.7420736,12.174014 17.8690736,12.554874 18.3573736,13.033384 L19.1190736,13.775574 C19.5975736,14.254084 20.2127736,14.283384 20.6815736,13.814634 L23.5916736,10.894714 C24.0604736,10.425964 24.0409736,9.83026404 23.5623736,9.35174404 L22.7909736,8.59002404 C22.3123736,8.11150404 21.9413736,7.95530404 21.4627736,7.99430404 L20.8866736,8.04310404 L20.2420736,7.40840404 L20.4862736,6.28530404 C20.6131736,5.71890404 20.4569736,5.27950404 19.8709736,4.69350404 L17.6737736,2.50600404 C14.3338736,-0.814295964 9.90027363,-0.736195964 7.00968363,2.15450404 C6.58976363,2.56460404 6.56046363,3.14080404 6.79484363,3.53140404 C7.02921363,3.89280404 7.48820363,4.12710404 8.13277363,3.96110404 C9.59757363,3.61930404 11.1209736,3.56070404 12.5467736,4.49820404 L11.9608736,5.95330404 C11.7655736,6.43180404 11.7362736,6.83220404 11.8631736,7.19350404 L0.798753634,17.584166 C-0.187576366,18.5021352 -0.265706366,19.478698 0.593673634,20.347834 Z M8.50387363,2.52560404 C10.9354736,0.748204036 14.2264736,1.05100404 16.4530736,3.27750404 L18.8846736,5.68960404 C19.1190736,5.92400404 19.1580736,6.10960404 19.0897736,6.45140404 L18.7674736,7.93570404 L20.2713736,9.42010404 L21.2577736,9.36151404 C21.5116736,9.35174404 21.5897736,9.37127404 21.7850736,9.56658404 L22.3612736,10.142764 L19.9198736,12.584164 L19.3436736,12.007994 C19.1483736,11.812684 19.1190736,11.734554 19.1288736,11.470884 L19.1971736,10.494324 L17.7030736,9.00994404 L16.1795736,9.26385404 C15.8573736,9.33221404 15.7108736,9.30291404 15.4666736,9.06854404 L13.4647736,7.06660404 C13.2108736,6.83220404 13.1815736,6.66620404 13.3377736,6.29510404 L14.2166736,4.20530404 C12.6541736,2.75020404 10.6229736,2.12520404 8.59167363,2.72090404 C8.43547363,2.75990404 8.37687363,2.63300404 8.50387363,2.52560404 Z M3.02531363,20.787304 L1.85343363,19.625184 C1.38468363,19.166198 1.49210363,18.824401 1.89249363,18.4630728 L12.7030736,8.28730404 L14.1678736,9.77166404 L4.17765363,20.757994 C3.82609363,21.158384 3.49406363,21.256044 3.02531363,20.787304 Z" id="Shape"></path>
                </g>
                <text id="Exporting" fill="#000000" fill-rule="nonzero" font-family="Helvetica-Bold, Helvetica" font-size="13" font-weight="bold">
                    <tspan x="1289" y="1953">Exporting</tspan>
                </text>
                <text id="Symbols-should-be-outlined-when-exporting-to-ensure-the" fill="#000000" fill-rule="nonzero" font-family="Helvetica" font-size="13" font-weight="normal">
                    <tspan x="1289" y="1971">Symbols should be outlined when exporting to ensure the</tspan>
                </text>
                <text id="design-is-preserved-when-submitting-to-Xcode." fill="#000000" fill-rule="nonzero" font-family="Helvetica" font-size="13" font-weight="normal">
                    <tspan x="1289" y="1989">design is preserved when submitting to Xcode.</tspan>
                </text>
                <text id="template-version" fill="#000000" fill-rule="nonzero" font-family="Helvetica" font-size="13" font-weight="normal">
                    <tspan x="2952" y="1933">Template v.2.0</tspan>
                </text>
                <text id="Requires-Xcode-12-or-greater" fill="#000000" fill-rule="nonzero" font-family="Helvetica" font-size="13" font-weight="normal">
                    <tspan x="2865" y="1951">Requires Xcode 12 or greater</tspan>
                </text>
                <text id="Generated-from-house" fill="#000000" fill-rule="nonzero" font-family="Helvetica" font-size="13" font-weight="normal">
                    <tspan x="2905" y="1969">Generated from house</tspan>
                </text>
                <text id="Typeset-at-100-points" fill="#000000" fill-rule="nonzero" font-family="Helvetica" font-size="13" font-weight="normal">
                    <tspan x="2912" y="1987">Typeset at 100 points</tspan>
                </text>
                <text id="Small" fill="#000000" fill-rule="nonzero" font-family="Helvetica" font-size="13" font-weight="normal">
                    <tspan x="263" y="726">Small</tspan>
                </text>
                <text id="Medium" fill="#000000" fill-rule="nonzero" font-family="Helvetica" font-size="13" font-weight="normal">
                    <tspan x="263" y="1156">Medium</tspan>
                </text>
                <text id="Large" fill="#000000" fill-rule="nonzero" font-family="Helvetica" font-size="13" font-weight="normal">
                    <tspan x="263" y="1586">Large</tspan>
                </text>
            </g>
            <g id="Guides" transform="translate(264.000000, 609.041000)">
                <g id="H-reference" transform="translate(76.976562, 0.500000)" fill="#27AAE1" fill-rule="nonzero">
                    <path d="M-1.22124533e-15,70.459 L2.685548,70.459 L12.011738,45.9961 L44.775438,45.9961 L54.150438,70.459 L56.787138,70.459 L29.638638,0 L27.148438,0 L-1.22124533e-15,70.459 Z M28.369138,3.3203 L28.466838,3.3203 L43.896438,43.75 L12.890638,43.75 L28.369138,3.3203 Z" id="Shape"></path>
                </g>
                <line x1="0" y1="70.959" x2="2773" y2="70.959" id="Baseline-S" stroke="#27AAE1" stroke-width="0.5"></line>
                <line x1="0" y1="0.5" x2="2773" y2="0.5" id="Capline-S" stroke="#27AAE1" stroke-width="0.5"></line>
                <g id="H-reference" transform="translate(76.976562, 430.500000)" fill="#27AAE1" fill-rule="nonzero">
                    <path d="M-1.22124533e-15,70.459 L2.685548,70.459 L12.011738,45.9961 L44.775438,45.9961 L54.150438,70.459 L56.787138,70.459 L29.638638,0 L27.148438,0 L-1.22124533e-15,70.459 Z M28.369138,3.3203 L28.466838,3.3203 L43.896438,43.75 L12.890638,43.75 L28.369138,3.3203 Z" id="Shape"></path>
                </g>
                <line x1="0" y1="500.959" x2="2773" y2="500.959" id="Baseline-M" stroke="#27AAE1" stroke-width="0.5"></line>
                <line x1="0" y1="430.499" x2="2773" y2="430.499" id="Capline-M" stroke="#27AAE1" stroke-width="0.5"></line>
                <g id="H-reference" transform="translate(76.976562, 860.500000)" fill="#27AAE1" fill-rule="nonzero">
                    <path d="M-1.22124533e-15,70.459 L2.685548,70.459 L12.011738,45.9961 L44.775438,45.9961 L54.150438,70.459 L56.787138,70.459 L29.638638,0 L27.148438,0 L-1.22124533e-15,70.459 Z M28.369138,3.3203 L28.466838,3.3203 L43.896438,43.75 L12.890638,43.75 L28.369138,3.3203 Z" id="Shape"></path>
                </g>
                <line x1="0" y1="930.959" x2="2773" y2="930.959" id="Baseline-L" stroke="#27AAE1" stroke-width="0.5"></line>
                <line x1="0" y1="860.499" x2="2773" y2="860.499" id="Capline-L" stroke="#27AAE1" stroke-width="0.5"></line>
                <line x1="1116.12" y1="405.749" x2="1116.12" y2="525.079" id="left-margin" stroke="#00AEEF" stroke-width="0.5"></line>
                <line x1="1257.57" y1="405.749" x2="1257.57" y2="525.079" id="right-margin" stroke="#00AEEF" stroke-width="0.5"></line>
            </g>
            <g id="Symbols" transform="translate(493.718500, 601.215850)" fill="#000000" fill-rule="nonzero">
                <g id="Black-L" transform="translate(2357.626000, 833.217400)">
                    <path d="M3.55271368e-15,68.35975 C3.55271368e-15,73.97495 4.0039,77.97885 10.1562,77.97885 C12.7929,77.97885 15.625,76.70935 17.9687,74.70735 L21.6796,71.58235 L21.6796,125.04915 C21.6796,136.03555 28.6621,142.96905 40.332,142.96905 L125.6345,142.96905 C137.3045,142.96905 144.2875,136.03555 144.2875,125.04915 L144.2875,71.43585 L148.1935,74.70735 C150.5375,76.70935 153.3205,77.97885 156.0055,77.97885 C162.0115,77.97885 166.1135,74.21905 166.1135,68.40855 C166.1135,65.43005 164.6485,62.35385 162.0605,60.20545 L144.2875,45.26405 L119.2875,24.31675 L96.3375,4.98075 C88.3785,-1.66025 77.8808,-1.66025 69.9707,4.98075 L4.1015,60.25425 C1.4648,62.50035 3.55271368e-15,65.52765 3.55271368e-15,68.35975 Z M101.0745,84.52185 C101.0745,81.39685 99.0725,79.39485 95.9475,79.39485 L70.2636,79.39485 C67.1386,79.39485 65.039,81.39685 65.039,84.52185 L65.039,122.70545 L47.4609,122.70545 C43.9453,122.70545 41.9433,120.65465 41.9433,117.13905 L41.9433,54.63905 L78.955,23.58435 C81.6406,21.28945 84.5705,21.33825 87.3045,23.58435 L124.0235,54.44375 L124.0235,117.13905 C124.0235,120.65465 121.9725,122.70545 118.5055,122.70545 L101.0745,122.70545 L101.0745,84.52185 Z" id="Shape"></path>
                </g>
                <g id="Heavy-L" transform="translate(2063.136000, 834.462525)">
                    <path d="M0,66.577525 C0,71.411425 3.4667,74.927125 8.8378,74.927125 C11.2304,74.927125 13.6718,73.755225 15.7226,72.046225 L20.7031,67.847025 L20.7031,123.266925 C20.7031,133.667325 27.1972,140.112625 38.0859,140.112625 L80.1968814,140.112625 L80.1968814,95.8287263 L80.83475,95.8287263 L81.4420316,95.8287263 L81.4420316,140.112625 L123.3395,140.112625 C134.2775,140.112625 140.7715,133.667325 140.7715,123.266925 L140.7715,67.651725 L145.9965,72.046225 C148.0465,73.755225 150.4395,74.927125 152.8315,74.927125 C158.0565,74.927125 161.6695,71.704425 161.6695,66.675125 C161.6695,63.989625 160.4005,61.401725 158.1545,59.497425 L140.7715,44.897825 L118.3105,26.050125 L92.6265,4.468125 C85.5465,-1.489375 76.2695,-1.489375 69.1406,4.468125 L3.5156,59.546225 C1.2695,61.499325 0,64.087225 0,66.577525 Z M98.8285,83.227825 C98.8285,80.200525 96.8745,78.247425 93.8475,78.247425 L67.9199,78.247425 C64.8925,78.247425 62.8417,80.200525 62.8417,83.227825 L62.8417,122.583325 L43.9941,122.583325 C40.2832,122.583325 38.1835,120.483725 38.1835,116.723925 L38.1835,53.198625 L77.1484,20.532525 C79.541,18.481825 82.2265,18.481825 84.6675,20.532525 L123.2425,52.954425 L123.2425,116.723925 C123.2425,120.483725 121.1915,122.583325 117.4805,122.583325 L98.8285,122.583325 L98.8285,83.227825 Z" id="Shape"></path>
                </g>
                <g id="Bold-L" transform="translate(1768.936000, 835.842300)">
                    <path d="M0,64.61175 C0,68.51805 2.8808,71.54535 7.373,71.54535 C9.4726,71.54535 11.4746,70.47115 13.1835,69.05515 L19.58,63.68405 L19.58,121.30125 C19.58,131.06685 25.4882,136.87735 35.6445,136.87735 L73.8367042,136.87735 L73.8367042,90.5279095 L78.32025,90.5279095 L82.9307072,90.5279095 L82.9307072,136.87735 L120.8005,136.87735 C130.9085,136.87735 136.8655,131.01805 136.8655,121.30125 L136.8655,63.43985 L143.5055,69.05515 C145.2145,70.47115 147.2165,71.54535 149.3165,71.54535 C153.5645,71.54535 156.6405,68.85985 156.6405,64.70945 C156.6405,62.36565 155.6645,60.31485 153.7595,58.75235 L136.8655,44.49455 L117.1875,27.99065 L88.5255,3.91845 C82.373,-1.30615 74.4628,-1.30615 68.2617,3.91845 L2.9296,58.75235 C1.0253,60.36375 0,62.51215 0,64.61175 Z M96.3375,81.79925 C96.3375,78.82075 94.4335,76.96525 91.5035,76.96525 L65.2343,76.96525 C62.3046,76.96525 60.3515,78.82075 60.3515,81.79925 L60.3515,122.47305 L40.0878,122.47305 C36.1816,122.47305 34.0332,120.27585 34.0332,116.32075 L34.0332,51.57465 L75.0976,17.10205 C77.1972,15.29535 79.541,15.29535 81.6894,17.10205 L122.4125,51.33055 L122.4125,116.32075 C122.4125,120.27585 120.2635,122.47305 116.3085,122.47305 L96.3375,122.47305 L96.3375,81.79925 Z" id="Shape"></path>
                </g>
                <g id="Semibold-L" transform="translate(1473.936000, 836.818825)">
                    <path d="M0,63.195825 C0,66.467325 2.4414,69.152825 6.3964,69.152825 C8.2519,69.152825 9.9609,68.225125 11.4257,66.955525 L18.7988,60.754425 L18.7988,119.934125 C18.7988,129.211425 24.3652,134.680125 33.9355,134.680125 L71.0473656,134.680125 L71.0473656,89.3786829 L76.61125,89.3786829 L82.3750463,89.3786829 L82.3750463,134.680125 L119.0425,134.680125 C128.6135,134.680125 134.1305,129.211425 134.1305,119.934125 L134.1305,60.510225 L141.7965,66.955525 C143.3105,68.225125 145.0195,69.152825 146.8745,69.152825 C150.5375,69.152825 153.2225,66.906725 153.2225,63.342325 C153.2225,61.242625 152.3925,59.533725 150.7325,58.166525 L134.1305,44.201625 L116.4555,29.357925 L85.6935,3.479025 C80.1757,-1.159675 73.2421,-1.159675 67.6757,3.479025 L2.4902,58.166525 C0.83,59.582525 0,61.438025 0,63.195825 Z M94.5805,80.773925 C94.5805,77.893025 92.7735,76.037625 89.8925,76.037625 L63.4277,76.037625 C60.5468,76.037625 58.6425,77.893025 58.6425,80.773925 L58.6425,122.326625 L37.4511,122.326625 C33.3496,122.326625 31.1523,120.129425 31.1523,115.979025 L31.1523,50.402825 L73.7304,14.709425 C75.5859,13.098125 77.6855,13.049325 79.6386,14.709425 L121.8265,50.158725 L121.8265,115.979025 C121.8265,120.129425 119.6285,122.326625 115.5275,122.326625 L94.5805,122.326625 L94.5805,80.773925 Z" id="Shape"></path>
                </g>
                <g id="Medium-L" transform="translate(1178.546000, 837.551175)">
                    <path d="M0,62.170475 C0,64.953675 2.1484,67.395075 5.6152,67.395075 C7.3242,67.395075 8.789,66.516175 10.1074,65.393175 L18.2128,58.557175 L18.2128,118.908775 C18.2128,127.844275 23.4863,133.020075 32.6171,133.020075 L67.1875,133.020075 L67.1875,86.2300681 L75.29275,86.2300681 L83.32375,86.2300681 L83.32375,133.020075 L117.7245,133.020075 C126.8555,133.020075 132.1285,127.795475 132.1285,118.908775 L132.1285,58.313075 L140.5275,65.393175 C141.8455,66.516175 143.3105,67.395075 145.0195,67.395075 C148.1935,67.395075 150.5855,65.393175 150.5855,62.268175 C150.5855,60.412675 149.9025,58.947775 148.4375,57.727075 L132.1285,44.006375 L115.8695,30.334575 L83.5449,3.186075 C78.5156,-1.062025 72.2656,-1.062025 67.1875,3.186075 L2.1972,57.775975 C0.6835,58.996675 0,60.607975 0,62.170475 Z M93.2615,79.992775 C93.2615,77.209575 91.4555,75.402875 88.6715,75.402875 L62.0117,75.402875 C59.2285,75.402875 57.373,77.209575 57.373,79.992775 L57.373,122.277875 L35.4003,122.277875 C31.2011,122.277875 28.955,120.031775 28.955,115.734975 L28.955,49.572775 L72.6562,12.951775 C74.3652,11.438075 76.3183,11.389175 78.125,12.951775 L121.3865,49.279875 L121.3865,115.734975 C121.3865,120.031775 119.1405,122.277875 114.9415,122.277875 L93.2615,122.277875 L93.2615,79.992775 Z" id="Shape"></path>
                </g>
                <g id="Regular-L" transform="translate(883.546000, 838.503175)">
                    <path d="M0,60.778975 C0,62.976275 1.7089,65.075875 4.6386,65.075875 C6.1035,65.075875 7.3242,64.245775 8.3984,63.318075 L17.4804,55.700875 L17.4804,117.517275 C17.4804,126.013375 22.3632,130.798575 30.957,130.798575 L64.2876599,130.798575 L64.2876599,83.1896473 L73.58375,83.1896473 L82.7120556,83.1896473 L82.7120556,130.798575 L115.9665,130.798575 C124.5605,130.798575 129.4435,126.013375 129.4435,117.517275 L129.4435,55.456775 L138.8185,63.318075 C139.9415,64.245775 141.1135,65.075875 142.6265,65.075875 C145.1655,65.075875 147.1675,63.464575 147.1675,60.925475 C147.1675,59.314175 146.6305,58.239975 145.4585,57.214575 L129.4435,43.737975 L115.0875,31.677475 L80.7617,2.820075 C76.3671,-0.940025 71.0449,-0.940025 66.6015,2.820075 L1.7578,57.214575 C0.5371,58.239975 0,59.509475 0,60.778975 Z M91.5525,78.991875 C91.5525,76.257575 89.7945,74.499775 87.0605,74.499775 L60.205,74.499775 C57.4707,74.499775 55.664,76.257575 55.664,78.991875 L55.664,122.155975 L32.7636,122.155975 C28.3691,122.155975 26.123,119.861075 26.123,115.417675 L26.123,48.474375 L71.289,10.583675 C72.7539,9.265375 74.4628,9.216475 76.0742,10.583675 L120.8005,48.181375 L120.8005,115.417675 C120.8005,119.861075 118.5545,122.155975 114.1115,122.155975 L91.5525,122.155975 L91.5525,78.991875 Z" id="Shape"></path>
                </g>
                <g id="Light-L" transform="translate(589.026000, 839.492525)">
                    <path d="M0,58.813125 C0,60.473225 1.3183,62.035725 3.5156,62.035725 C4.6386,62.035725 5.4687,61.449825 6.2988,60.766225 L16.5527,52.221325 L16.5527,116.381425 C16.5527,124.340425 20.996,128.735025 29.0527,128.735025 L60.5085354,128.735025 L60.5085354,80.2609103 L71.38675,80.2609103 L82.4976835,80.2609103 L82.4976835,128.735025 L113.7205,128.735025 C121.7775,128.735025 126.2205,124.291625 126.2205,116.381425 L126.2205,52.123625 L136.5235,60.766225 C137.3535,61.449825 138.1835,62.035725 139.3065,62.035725 C141.2595,62.035725 142.7735,60.815025 142.7735,58.910725 C142.7735,57.641225 142.3825,56.811125 141.3575,55.981125 L126.2205,43.188125 L113.9155,32.885425 L77.8808,2.563125 C73.9257,-0.854375 69.1894,-0.854375 65.1367,2.563125 L1.4648,55.981125 C0.4394,56.811125 0,57.787725 0,58.813125 Z M89.0625,77.611925 C89.0625,75.121725 87.4515,73.510425 84.9605,73.510425 L57.9101,73.510425 C55.4199,73.510425 53.7597,75.121725 53.7597,77.611925 L53.7597,122.094325 L30.4199,122.094325 C25.4882,122.094325 23.1445,119.750625 23.1445,114.770125 L23.1445,46.654925 L68.8964,8.276025 C70.5078,6.860025 72.2656,6.664625 74.121,8.276025 L119.5805,46.508425 L119.5805,114.770125 C119.5805,119.750625 117.2365,122.094325 112.3045,122.094325 L89.0625,122.094325 L89.0625,77.611925 Z" id="Shape"></path>
                </g>
                <g id="Thin-L" transform="translate(295.222000, 840.761675)">
                    <path d="M0,56.274475 C0,57.250975 0.7812,58.081075 2.0019,58.081075 C2.6855,58.081075 3.0761,57.836975 3.5644,57.446275 L15.2832,47.582975 L15.2832,114.868175 C15.2832,122.192375 19.1406,126.000975 26.4648,126.000975 L55.5063016,126.000975 L55.5063016,76.4152989 L68.48125,76.4152989 L81.6949059,76.4152989 L81.6949059,126.000975 L110.7425,126.000975 C118.0665,126.000975 121.9235,122.094775 121.9235,114.868175 L121.9235,47.729475 L133.4475,57.446275 C133.9355,57.836975 134.2775,58.081075 134.9605,58.081075 C136.1325,58.081075 136.9625,57.299775 136.9625,56.274475 C136.9625,55.493175 136.6695,55.004875 135.9865,54.370175 L121.9235,42.553675 L112.3535,34.497075 L74.121,2.270475 C70.6543,-0.756825 66.748,-0.756825 63.1835,2.270475 L1.0253,54.370175 C0.2929,55.004875 0,55.541975 0,56.274475 Z M85.7425,75.854475 C85.7425,73.657275 84.3265,72.241275 82.1289,72.241275 L54.8339,72.241275 C52.6855,72.241275 51.2695,73.657275 51.2695,75.854475 L51.2695,122.094775 L27.2949,122.094775 C21.6796,122.094775 19.2382,119.604475 19.2382,113.989275 L19.2382,44.262675 L65.7226,5.249075 C67.5293,3.686575 69.3847,3.393575 71.5332,5.249075 L118.0175,44.409175 L118.0175,113.989275 C118.0175,119.604475 115.5275,122.094775 109.9125,122.094775 L85.7425,122.094775 L85.7425,75.854475 Z" id="Shape"></path>
                </g>
                <g id="Ultralight-L" transform="translate(0.000000, 841.433050)">
                    <path d="M0,54.9195 C0,55.5542 0.4882,56.0425 1.2207,56.0425 C1.7089,56.0425 1.8066,55.9449 2.1484,55.7007 L14.6484,45.2027 L14.6484,114.0503 C14.6484,121.0327 18.2128,124.5972 25.1953,124.5972 L52.5948949,124.5972 L52.5948949,74.1059991 L66.99225,74.1059991 L81.3707046,74.1059991 L81.3707046,124.5972 L109.1795,124.5972 C116.1625,124.5972 119.7265,120.9839 119.7265,114.0503 L119.7265,45.4468 L131.8355,55.7007 C132.1775,55.9449 132.2755,56.0425 132.7635,56.0425 C133.4965,56.0425 133.9845,55.5054 133.9845,54.9195 C133.9845,54.3823 133.7895,54.0894 133.2035,53.5523 L119.7265,42.1753 L111.5725,35.2906 L72.1679,2.0874 C68.9941,-0.6958 65.4785,-0.6958 62.1582,2.0874 L0.7812,53.5523 C0.1953,54.0894 0,54.3823 0,54.9195 Z M84.0335,74.8902 C84.0335,72.8882 82.7148,71.5699 80.7128,71.5699 L53.2714,71.5699 C51.2695,71.5699 49.9511,72.8882 49.9511,74.8902 L49.9511,122.0581 L25.6835,122.0581 C19.7265,122.0581 17.1875,119.5679 17.1875,113.6109 L17.1875,43.0542 L64.1113,3.6499 C66.0156,2.0386 67.871,1.648 70.2148,3.6499 L117.1875,43.2984 L117.1875,113.6109 C117.1875,119.5679 114.6485,122.0581 108.6915,122.0581 L84.0335,122.0581 L84.0335,74.8902 Z" id="Shape"></path>
                </g>
                <g id="Black-M" transform="translate(2374.472700, 417.878400)">
                    <path d="M0,54.33345 C0,59.50925 3.6133,62.92725 8.9843,62.92725 C11.2793,62.92725 13.7695,61.90185 15.8691,60.14405 L17.6269,58.67915 L17.6269,98.71825 C17.6269,107.70265 23.4863,113.56195 33.2031,113.56195 L99.2678,113.56195 C108.9848,113.56195 114.7948,107.70265 114.7948,98.71825 L114.7948,58.67915 L116.5528,60.14405 C118.6528,61.90185 121.1428,62.92725 123.4378,62.92725 C128.8578,62.92725 132.4218,59.50925 132.4218,54.33345 C132.4218,51.79445 131.0548,48.91355 128.7108,46.96045 L114.7948,35.29055 L93.1638,17.12645 L78.0761,4.43115 C70.9961,-1.47705 61.5722,-1.47705 54.4922,4.43115 L3.7109,47.05805 C1.3672,49.06005 0,51.74555 0,54.33345 Z M80.0293,66.54055 C80.0293,64.09915 78.4668,62.53665 76.0254,62.53665 L56.4453,62.53665 C54.0039,62.53665 52.3926,64.09915 52.3926,66.54055 L52.3926,95.25145 L40.1855,95.25145 C37.5,95.25145 35.9375,93.68895 35.9375,91.052234 L35.9375,43.34715 L62.3535,21.17915 C64.8926,19.03075 67.5781,19.03075 70.2148,21.17915 L96.5328,43.29835 L96.5328,91.052234 C96.5328,93.68895 94.9708,95.25145 92.2848,95.25145 L80.0293,95.25145 L80.0293,66.54055 Z" id="Shape"></path>
                </g>
                <g id="Heavy-M" transform="translate(2079.642700, 418.977000)">
                    <path d="M0,52.94195 C0,57.33645 3.125,60.36375 7.8613,60.36375 C9.9121,60.36375 12.1093,59.43605 13.916,57.92235 L16.7968,55.48095 L16.7968,97.08254 C16.7968,105.57865 22.2168,110.94975 31.2988,110.94975 L97.3148,110.94975 C106.3968,110.94975 111.8168,105.57865 111.8168,97.08254 L111.8168,55.43215 L114.7458,57.92235 C116.6018,59.43605 118.7498,60.36375 120.8008,60.36375 C125.4878,60.36375 128.6618,57.43415 128.6618,52.94195 C128.6618,50.64695 127.4898,48.20555 125.4878,46.54545 L111.8168,35.02195 L92.3828,18.71335 L74.8047,3.91845 C68.5547,-1.30615 60.2539,-1.30615 54.0039,3.91845 L3.2226,46.59425 C1.1718,48.30325 0,50.69585 0,52.94195 Z M78.2226,65.49075 C78.2226,63.09815 76.709,61.53565 74.3164,61.53565 L54.4433,61.53565 C52.0508,61.53565 50.4394,63.09815 50.4394,65.49075 L50.4394,95.12942 L37.0117,95.12942 C34.2285,95.12942 32.6172,93.56692 32.6172,90.734884 L32.6172,42.24855 L60.9863,18.46925 C63.1836,16.56495 65.5761,16.56495 67.8222,18.46925 L95.9958,42.15095 L95.9958,90.734884 C95.9958,93.56692 94.3848,95.12942 91.6018,95.12942 L78.2226,95.12942 L78.2226,65.49075 Z" id="Shape"></path>
                </g>
                <g id="Bold-M" transform="translate(1785.002700, 420.209900)">
                    <path d="M0,51.31835 C0,54.88285 2.5879,57.56835 6.5918,57.56835 C8.4472,57.56835 10.2539,56.68945 11.7676,55.37115 L15.8691,51.95315 L15.8691,95.2637 C15.8691,103.17385 20.8008,108.05665 29.1504,108.05665 L61.2927756,108.05665 L61.2927756,79.2400152 L61.2927756,73.3267086 L62.2559,73.3267086 L63.0492728,73.3267086 L63.0492728,78.7487492 L63.0492728,108.05665 L95.2148,108.05665 C103.5158,108.05665 108.4958,103.17385 108.4958,95.2637 L108.4958,51.80665 L112.7438,55.37115 C114.2578,56.68945 116.1128,57.56835 117.9198,57.56835 C121.7778,57.56835 124.5118,55.12695 124.5118,51.36725 C124.5118,49.36525 123.5838,47.46095 121.8748,46.04495 L108.4958,34.76565 L91.5038,20.50785 L71.1426,3.36915 C65.8203,-1.12305 58.8379,-1.12305 53.4668,3.36915 L2.6367,46.04495 C0.9277,47.50975 0,49.46295 0,51.31835 Z M76.2207,64.30665 C76.2207,61.96295 74.707,60.44925 72.3633,60.44925 L52.1972,60.44925 C49.8535,60.44925 48.291,61.96295 48.291,64.30665 L48.291,95.01956 L33.4472,95.01956 C30.5664,95.01956 28.955,93.35941 28.955,90.42972 L28.955,40.96685 L59.4726,15.38085 C61.2793,13.81835 63.2812,13.81835 65.1367,15.38085 L95.4098,40.82035 L95.4098,90.42972 C95.4098,93.35941 93.7988,95.01956 90.8688,95.01956 L76.2207,95.01956 L76.2207,64.30665 Z" id="Shape"></path>
                </g>
                <g id="Semibold-M" transform="translate(1489.732700, 421.101025)">
                    <path d="M0,50.183125 C0,53.161625 2.1972,55.554225 5.7617,55.554225 C7.373,55.554225 8.9355,54.724125 10.3027,53.601125 L15.2343,49.450725 L15.2343,93.933125 C15.2343,101.501525 19.8242,106.042525 27.6367,106.042525 L57.935528,106.042525 L57.935528,70.714802 L60.8154,70.714802 L63.7880534,70.714802 L63.7880534,106.042525 L93.7498,106.042525 C101.5628,106.042525 106.1528,101.501525 106.1528,93.933125 L106.1528,49.255425 L111.3278,53.601125 C112.6948,54.724125 114.2578,55.554225 115.9178,55.554225 C119.1898,55.554225 121.6308,53.503425 121.6308,50.280825 C121.6308,48.425325 120.8498,46.862825 119.3848,45.642125 L106.1528,34.509325 L90.9178,21.716325 L68.6035,2.966325 C63.916,-0.988775 57.8613,-0.988775 53.125,2.966325 L2.2461,45.642125 C0.7812,46.911625 0,48.571825 0,50.183125 Z M74.8047,63.415525 C74.8047,61.120625 73.3398,59.655825 71.0449,59.655825 L50.6836,59.655825 C48.3398,59.655825 46.8261,61.120625 46.8261,63.415525 L46.8261,94.860855 L31.0058,94.860855 C28.0273,94.860855 26.3672,93.200705 26.3672,90.173355 L26.3672,40.075725 L58.4472,13.220225 C59.9609,11.901925 61.7187,11.901925 63.2812,13.220225 L95.0198,39.831525 L95.0198,90.173355 C95.0198,93.200705 93.3598,94.860855 90.3808,94.860855 L74.8047,94.860855 L74.8047,63.415525 Z" id="Shape"></path>
                </g>
                <g id="Medium-M" transform="translate(1194.122700, 421.735775)">
                    <path d="M0,49.353075 C0,51.892175 1.9531,54.089375 5.0781,54.089375 C6.5918,54.089375 7.959,53.259275 9.1797,52.282775 L14.7461,47.595275 L14.7461,93.005405 C14.7461,100.231975 19.0918,104.528875 26.5625,104.528875 L55.3997662,104.528875 L55.3997662,68.7516166 L59.7169,68.7516166 L63.9839852,68.7516166 L63.9839852,104.528875 L92.6268,104.528875 C100.0488,104.528875 104.4438,100.231975 104.4438,93.005405 L104.4438,47.351075 L110.3028,52.282775 C111.4748,53.259275 112.8418,54.089375 114.3558,54.089375 C117.2368,54.089375 119.4338,52.282775 119.4338,49.450675 C119.4338,47.790575 118.7988,46.472175 117.5288,45.397975 L104.4438,34.362875 L90.4788,22.644075 L66.6992,2.673375 C62.4511,-0.891125 57.08,-0.891125 52.832,2.673375 L1.9531,45.397975 C0.6347,46.472175 0,47.937075 0,49.353075 Z M73.7793,62.829575 C73.7793,60.534675 72.3144,59.069875 70.0195,59.069875 L49.5117,59.069875 C47.2168,59.069875 45.7031,60.534675 45.7031,62.829575 L45.7031,94.812045 L29.1504,94.812045 C26.123,94.812045 24.4629,93.103065 24.4629,90.026895 L24.4629,39.440975 L57.6172,11.608875 C58.9843,10.437075 60.5468,10.437075 61.914,11.608875 L94.6778,39.147975 L94.6778,90.026895 C94.6778,93.103065 93.0178,94.812045 89.9898,94.812045 L73.7793,94.812045 L73.7793,62.829575 Z" id="Shape"></path>
                </g>
                <g id="Regular-M" transform="translate(898.852700, 422.590300)">
                    <path d="M0,48.20555 C0,50.20755 1.5625,52.11185 4.1992,52.11185 C5.5664,52.11185 6.6894,51.37935 7.7148,50.54935 L14.0625,45.17825 L14.0625,91.76026 C14.0625,98.59615 18.1152,102.55125 25.0976,102.55125 L52.0408048,102.55125 L52.0408048,65.8293944 L58.2764,65.8293944 L64.9258554,65.8293944 L64.9258554,102.55125 L91.1618,102.55125 C98.0958,102.55125 102.1488,98.59615 102.1488,91.76026 L102.1488,44.83645 L108.9358,50.54935 C109.9118,51.37935 111.0348,52.11185 112.4028,52.11185 C114.6968,52.11185 116.5528,50.69585 116.5528,48.35205 C116.5528,46.88725 116.0648,45.91065 115.0388,45.03175 L102.1488,34.19185 L89.8928,23.88915 L64.209,2.30715 C60.5957,-0.76905 56.1035,-0.76905 52.4414,2.30715 L1.5625,45.03175 C0.4883,45.91065 0,47.08255 0,48.20555 Z M72.4121,61.97505 C72.4121,59.72905 70.9472,58.26415 68.7011,58.26415 L47.998,58.26415 C45.7031,58.26415 44.2383,59.72905 44.2383,61.97505 L44.2383,94.68994 L26.7578,94.68994 C23.6328,94.68994 21.9238,92.93213 21.9238,89.7583 L21.9238,38.58645 L56.5918,9.53365 C57.666,8.55715 58.9843,8.55715 60.0586,9.53365 L94.2868,38.24465 L94.2868,89.7583 C94.2868,92.93213 92.5778,94.68994 89.5018,94.68994 L72.4121,94.68994 L72.4121,61.97505 Z" id="Shape"></path>
                </g>
                <g id="Light-M" transform="translate(604.092700, 423.444750)">
                    <path d="M23.3398,100.7203 L48.8451433,100.7203 L48.8451433,63.3339117 L56.3234,63.3339117 L64.2020041,63.3339117 L64.2020041,100.7203 L89.1108,100.7203 C95.6058,100.7203 99.2678,97.107 99.2678,90.71049 L99.2678,41.8824 L106.8358,48.2789 C107.6168,48.9136 108.3988,49.4507 109.4238,49.4507 C111.2308,49.4507 112.6468,48.3277 112.6468,46.5699 C112.6468,45.4468 112.2558,44.6656 111.3768,43.9332 L99.2678,33.7281 L88.8188,24.9878 L61.6699,2.0874 C58.3984,-0.6958 54.4433,-0.6958 51.123,2.0874 L1.2695,43.9332 C0.3906,44.6656 0,45.5933 0,46.4722 C0,48.0347 1.2207,49.4507 3.2226,49.4507 C4.248,49.4507 5.0781,48.9136 5.8105,48.2789 L13.2324,42.0289 L13.2324,90.71049 C13.2324,97.1558 16.8945,100.7203 23.3398,100.7203 Z M70.1172,60.7789 C70.1172,58.7281 68.7988,57.4097 66.7968,57.4097 L45.8984,57.4097 C43.8476,57.4097 42.5293,58.7281 42.5293,60.7789 L42.5293,94.66557 L24.6093,94.66557 C21.0449,94.66557 19.2871,92.85893 19.2871,89.24565 L19.2871,36.9996 L54.4433,7.4585 C55.664,6.4332 56.9824,6.3355 58.3008,7.4585 L93.2128,36.8042 L93.2128,89.24565 C93.2128,92.85893 91.4548,94.66557 87.8418,94.66557 L70.1172,94.66557 L70.1172,60.7789 Z" id="Shape"></path>
                </g>
                <g id="Thin-M" transform="translate(309.992700, 424.616700)">
                    <path d="M21.0937,98.22995 L43.9213921,98.22995 L43.9213921,59.6912377 L53.7109,59.6912377 L63.6017713,59.6912377 L63.6017713,98.22995 L86.4746,98.22995 C92.2848,98.22995 95.4098,95.10495 95.4098,89.34323 L95.4098,37.92725 L104.0528,45.25145 C104.5408,45.59325 104.9318,45.88625 105.5668,45.88625 C106.6408,45.88625 107.4218,45.15375 107.4218,44.17725 C107.4218,43.49365 107.1778,43.00535 106.5428,42.51705 L95.4098,33.14205 L87.4023,26.40375 L58.2519,1.79445 C55.4687,-0.59815 52.2461,-0.59815 49.3652,1.79445 L0.8789,42.51705 C0.2441,43.00535 0,43.54245 0,44.17725 C0,45.05615 0.7324,45.88625 1.8554,45.88625 C2.4902,45.88625 2.8808,45.59325 3.3691,45.25145 L12.1093,37.87835 L12.1093,89.34323 C12.1093,95.15375 15.2343,98.22995 21.0937,98.22995 Z M67.1386,59.16745 C67.1386,57.40965 66.0156,56.23775 64.2578,56.23775 L43.164,56.23775 C41.4062,56.23775 40.2832,57.40965 40.2832,59.16745 L40.2832,94.61665 L21.8261,94.61665 C17.6269,94.61665 15.7226,92.71237 15.7226,88.51315 L15.7226,34.85105 L51.6113,4.72405 C52.9785,3.55225 54.3945,3.30805 56.0058,4.72405 L91.7968,34.89985 L91.7968,88.51315 C91.7968,92.71237 89.8928,94.61665 85.6933,94.61665 L67.1386,94.61665 L67.1386,59.16745 Z" id="Shape"></path>
                </g>
                <g id="Ultralight-M" transform="translate(14.624700, 425.214775)">
                    <path d="M19.9218,96.997075 L41.6477761,96.997075 L41.6477761,58.1863952 L52.3684,58.1863952 L63.2517727,58.1863952 L63.2517727,96.997075 L85.1074,96.997075 C90.6248,96.997075 93.4568,94.067375 93.4568,88.647495 L93.4568,35.913175 L102.6368,43.676775 C102.9788,43.920975 103.1248,44.018575 103.5648,44.018575 C104.2478,44.018575 104.7368,43.530275 104.7368,42.944375 C104.7368,42.456075 104.5408,42.163175 104.0528,41.772475 L93.4568,32.788175 L86.7187,27.124075 L56.4941,1.684575 C53.955,-0.561525 51.123,-0.561525 48.4863,1.684575 L0.6836,41.772475 C0.1953,42.163175 0,42.456075 0,42.944375 C0,43.579175 0.4883,44.018575 1.1718,44.018575 C1.6113,44.018575 1.7578,43.920975 2.0996,43.676775 L11.5234,35.717775 L11.5234,88.647495 C11.5234,94.165075 14.4043,96.997075 19.9218,96.997075 Z M65.625,58.325275 C65.625,56.713875 64.5996,55.639675 62.9883,55.639675 L41.748,55.639675 C40.1367,55.639675 39.1113,56.713875 39.1113,58.325275 L39.1113,94.604575 L20.4101,94.604575 C15.8691,94.604575 13.916,92.651405 13.916,88.159215 L13.916,33.715875 L50.1953,3.295975 C51.6113,2.075275 53.0761,1.782275 54.834,3.295975 L91.0648,33.911175 L91.0648,88.159215 C91.0648,92.651405 89.1108,94.604575 84.6191,94.604575 L65.625,94.604575 L65.625,58.325275 Z" id="Shape"></path>
                </g>
                <g id="Black-S" transform="translate(2388.927120, -0.000000)">
                    <path d="M25.87888,88.79395 L77.63668,88.79395 C85.20508,88.79395 89.74608,84.2529 89.74608,77.22165 L89.74608,45.77635 L91.21138,46.99705 C92.82238,48.36425 94.77538,49.14545 96.53338,49.14545 C100.73238,49.14545 103.51538,46.50875 103.51538,42.50485 C103.51538,40.50295 102.44138,38.30565 100.63438,36.79195 L89.74608,27.66115 L72.94918,13.54975 L60.93748,3.44235 C55.46878,-1.14745 48.14458,-1.14745 42.67578,3.44235 L2.88088,36.84075 C1.07418,38.40325 0,40.50295 0,42.50485 C0,46.50875 2.78318,49.14545 6.98238,49.14545 C8.74028,49.14545 10.69338,48.36425 12.30468,46.99705 L13.76958,45.77635 L13.76958,77.22165 C13.76958,84.2529 18.31058,88.79395 25.87888,88.79395 Z M62.59768,52.07515 C62.59768,50.17085 61.37698,48.95015 59.47268,48.95015 L44.09178,48.95015 C42.18748,48.95015 40.91798,50.17085 40.91798,52.07515 L40.91798,74.63376 L31.24998,74.63376 C29.15038,74.63376 27.92968,73.41306 27.92968,71.31345 L27.92968,33.91115 L48.77928,16.43065 C50.73238,14.77045 52.83208,14.77045 54.83398,16.43065 L75.58598,33.86225 L75.58598,71.31345 C75.58598,73.41306 74.36528,74.63376 72.26558,74.63376 L62.59768,74.63376 L62.59768,52.07515 Z" id="Shape"></path>
                </g>
                <g id="Heavy-S" transform="translate(2093.437120, 0.756825)">
                    <path d="M24.60938,87.011705 L76.41598,87.011705 C83.54488,87.011705 87.79298,82.763655 87.79298,76.074205 L87.79298,43.603525 L90.03908,45.507825 C91.50438,46.728525 93.26138,47.509725 94.87338,47.509725 C98.58438,47.509725 101.07438,45.166025 101.07438,41.601525 C101.07438,39.794925 100.14638,37.890625 98.58438,36.572225 L87.79298,27.490225 L72.46098,14.648425 L58.74028,3.076125 C53.80858,-1.025375 47.36328,-1.025375 42.43168,3.076125 L2.53908,36.572225 C0.92778,37.988225 1.77635684e-15,39.843725 1.77635684e-15,41.601525 C1.77635684e-15,45.068325 2.44138,47.509725 6.24998,47.509725 C7.86138,47.509725 9.61918,46.728525 11.03518,45.507825 L13.23238,43.701125 L13.23238,76.074205 C13.23238,82.763655 17.48048,87.011705 24.60938,87.011705 Z M61.47458,51.367125 C61.47458,49.511725 60.25388,48.291025 58.34958,48.291025 L42.77348,48.291025 C40.91798,48.291025 39.64848,49.511725 39.64848,51.367125 L39.64848,74.511705 L29.05278,74.511705 C26.95318,74.511705 25.68358,73.290995 25.68358,71.142555 L25.68358,33.203125 L47.99808,14.550725 C49.65818,13.134725 51.51368,13.134725 53.22268,14.550725 L75.29298,33.105425 L75.29298,71.142555 C75.29298,73.290995 74.07228,74.511705 71.92388,74.511705 L61.47458,74.511705 L61.47458,51.367125 Z" id="Shape"></path>
                </g>
                <g id="Bold-S" transform="translate(1798.067120, 1.599075)">
                    <path d="M23.19338,84.9983466 C30.6827042,84.9983466 39.2903474,84.9983466 49.0163096,84.9983466 L49.0163096,55.5576618 L49.19419,55.5576618 L49.4136994,55.5576618 L49.4136994,84.9983466 L74.99998,84.9983466 C81.64058,84.9983466 85.59568,81.091325 85.59568,74.792495 L85.59568,41.149875 L88.76958,43.835475 C90.03908,44.909675 91.50438,45.642075 93.01738,45.642075 C96.14238,45.642075 98.38838,43.688975 98.38838,40.661675 C98.38838,39.001475 97.60738,37.438975 96.28938,36.315975 L85.59568,27.331575 L71.92388,15.856975 L56.24998,2.673375 C52.00198,-0.891125 46.43558,-0.891125 42.18748,2.673375 L2.14848,36.315975 C0.73238,37.487775 0,39.050275 0,40.563975 C0,43.444875 2.09958,45.642075 5.37108,45.642075 C6.88478,45.642075 8.34958,44.909675 9.61918,43.835475 L12.59768,41.345275 L12.59768,74.792495 C12.59768,81.140155 15.9176814,84.9983466 23.19338,84.9983466 Z M60.20508,50.622575 C60.20508,48.718275 58.98438,47.497575 57.08008,47.497575 L41.35738,47.497575 C39.45318,47.497575 38.18358,48.718275 38.18358,50.622575 L38.18358,74.401875 L26.61138,74.401875 C24.46288,74.401875 23.19338,73.132345 23.19338,70.983905 L23.19338,32.458475 L47.07028,12.438975 C48.43748,11.267075 49.99998,11.267075 51.36718,12.438975 L74.99998,32.263175 L74.99998,70.983905 C74.99998,73.132345 73.73048,74.401875 71.58208,74.401875 L60.20508,74.401875 L60.20508,50.622575 Z" id="Shape"></path>
                </g>
                <g id="Semibold-S" transform="translate(1502.307120, 2.185000)">
                    <path d="M22.21678,83.631115 C28.8086487,83.631115 36.4291324,83.631115 45.0782311,83.631115 L45.0782311,54.2762396 L48.24219,54.2762396 L51.191872,54.2762396 L51.191872,83.631115 L74.07228,83.631115 C80.32228,83.631115 84.08208,79.96829 84.08208,73.9136 L84.08208,39.48975 L87.89058,42.71245 C89.01368,43.64015 90.33238,44.37255 91.74838,44.37255 C94.48238,44.37255 96.48438,42.66365 96.48438,39.97805 C96.48438,38.41555 95.89838,37.09715 94.67738,36.12065 L84.08208,27.18505 L71.58208,16.68705 L54.54098,2.38035 C50.73238,-0.79345 45.84958,-0.79345 42.04098,2.38035 L1.85548,36.12065 C0.63478,37.14605 0,38.56205 0,39.88035 C0,42.37065 1.85548,44.37255 4.83398,44.37255 C6.20118,44.37255 7.51958,43.64015 8.64258,42.71245 L12.15818,39.73395 L12.15818,73.9136 C12.15818,79.96829 15.3212571,83.631115 22.21678,83.631115 Z M59.32618,50.08545 C59.32618,48.18115 58.10548,47.00935 56.24998,47.00935 L40.33208,47.00935 C38.47658,47.00935 37.20708,48.18115 37.20708,50.08545 L37.20708,74.35306 L24.95118,74.35306 C22.75388,74.35306 21.48438,73.0347 21.48438,70.83743 L21.48438,31.92145 L46.43558,10.97415 C47.60738,9.99755 48.97458,9.99755 50.09768,10.97415 L74.75588,31.67725 L74.75588,70.83743 C74.75588,73.0347 73.48638,74.35306 71.33788,74.35306 L59.32618,74.35306 L59.32618,50.08545 Z" id="Shape"></path>
                </g>
                <g id="Medium-S" transform="translate(1206.307120, 2.612275)">
                    <path d="M21.43558,82.6178804 C27.9093497,82.6178804 35.4313111,82.6178804 44.0014642,82.6178804 L44.0014642,53.3361248 L47.53419,53.3361248 L51.0979016,53.3361248 L51.0979016,82.6178804 L73.33988,82.6178804 C79.34568,82.6178804 82.91018,79.101565 82.91018,73.291015 L82.91018,38.232375 L87.20708,41.845675 C88.23238,42.724575 89.45318,43.408175 90.77138,43.408175 C93.21338,43.408175 95.06838,41.894575 95.06838,39.453075 C95.06838,38.037075 94.53138,36.865275 93.50538,35.986375 L82.91018,27.148475 L71.28908,17.333975 L53.22268,2.197275 C49.80468,-0.732425 45.36138,-0.732425 41.89458,2.197275 L1.66018,35.986375 C0.53708,36.914075 0,38.183575 0,39.355475 C0,41.503875 1.66018,43.408175 4.39458,43.408175 C5.71288,43.408175 6.88478,42.724575 7.91018,41.845675 L11.86528,38.525375 L11.86528,73.291015 C11.86528,79.101565 14.8517066,82.6178804 21.43558,82.6178804 Z M58.69138,49.707075 C58.69138,47.802775 57.47068,46.630875 55.56638,46.630875 L39.59958,46.630875 C37.69528,46.630875 36.47458,47.802775 36.47458,49.707075 L36.47458,74.267575 L23.63278,74.267575 C21.43558,74.267575 20.16598,72.998045 20.16598,70.751955 L20.16598,31.542975 L45.99608,9.912075 C46.97268,9.033175 48.19338,9.082075 49.16988,9.912075 L74.60938,31.249975 L74.60938,70.751955 C74.60938,72.998045 73.33988,74.267575 71.14258,74.267575 L58.69138,74.267575 L58.69138,49.707075 Z" id="Shape"></path>
                </g>
                <g id="Regular-S" transform="translate(910.517120, 3.198225)">
                    <path d="M20.50778,81.249985 C26.2288892,81.249985 33.5287497,81.249985 42.4073616,81.249985 L42.4073616,53.0794578 L46.60669,53.0794578 L50.7671711,53.0794578 L50.7671711,81.249985 L72.41208,81.249985 C78.07618,81.249985 81.44528,77.978505 81.44528,72.363265 L81.44528,36.572225 L86.32818,40.722625 C87.25588,41.455025 88.28128,42.138625 89.50198,42.138625 C91.55238,42.138625 93.21338,40.869125 93.21338,38.769525 C93.21338,37.451125 92.82238,36.572225 91.89438,35.791025 L81.44528,27.001925 L70.94728,18.164025 L51.56248,1.904325 C48.53518,-0.634775 44.77538,-0.634775 41.74808,1.904325 L1.36718,35.791025 C0.43948,36.572225 0,37.646425 0,38.623025 C0,40.429725 1.41598,42.138625 3.80858,42.138625 C5.02928,42.138625 6.05468,41.455025 6.93358,40.722625 L11.42578,36.914025 L11.42578,72.363265 C11.42578,77.978505 14.2593241,81.249985 20.50778,81.249985 Z M57.81248,49.169925 C57.81248,47.314425 56.59178,46.093725 54.73638,46.093725 L38.57418,46.093725 C36.71878,46.093725 35.49808,47.314425 35.49808,49.169925 L35.49808,74.218735 L21.97268,74.218735 C19.77538,74.218735 18.50588,72.851545 18.50588,70.605455 L18.50588,31.005825 L45.36138,8.447225 C46.19138,7.763625 47.16798,7.812525 47.90038,8.447225 L74.41408,30.664025 L74.41408,70.605455 C74.41408,72.851545 73.09568,74.218735 70.89848,74.218735 L57.81248,74.218735 L57.81248,49.169925 Z" id="Shape"></path>
                </g>
                <g id="Light-S" transform="translate(615.537120, 3.967275)">
                    <path d="M18.94528,79.6026686 C24.9930199,79.6026686 32.2033199,79.6026686 40.57618,79.6026686 L40.57618,50.6779544 L44.87304,50.6779544 L49.26758,50.6779544 L49.26758,79.6026686 L70.60548,79.6026686 C75.87888,79.6026686 78.85738,76.672345 78.85738,71.447735 L78.85738,33.947775 L84.52148,38.684075 C85.20508,39.269975 85.93748,39.758275 86.86528,39.758275 C88.47658,39.758275 89.74608,38.781675 89.74608,37.170375 C89.74608,36.144975 89.40428,35.461375 88.67188,34.826675 L78.85738,26.623475 L69.97068,19.152775 L49.26758,1.721175 C46.58208,-0.573725 43.31058,-0.573725 40.57618,1.721175 L1.12308,34.826675 C0.34178,35.461375 0,36.291475 0,37.072775 C0,38.439875 1.07418,39.758275 2.88088,39.758275 C3.85738,39.758275 4.58988,39.269975 5.27348,38.684075 L10.69338,34.143075 L10.69338,71.447735 C10.69338,76.672345 13.2691643,79.6026686 18.94528,79.6026686 Z M55.81058,48.107875 C55.81058,46.398875 54.73638,45.324675 53.02738,45.324675 L36.76758,45.324675 C35.05858,45.324675 33.98438,46.398875 33.98438,48.107875 L33.98438,74.182109 L20.11718,74.182109 C17.48048,74.182109 16.11328,72.814925 16.11328,70.129375 L16.11328,29.602075 L43.45708,6.652775 C44.38478,5.822775 45.41018,5.822775 46.38668,6.652775 L73.43748,29.406675 L73.43748,70.129375 C73.43748,72.814925 72.07028,74.182109 69.43358,74.182109 L55.81058,74.182109 L55.81058,48.107875 Z" id="Shape"></path>
                </g>
                <g id="Thin-S" transform="translate(321.125120, 5.004825)">
                    <path d="M16.94338,77.4419887 C19.1680882,77.4419887 25.2921146,77.4419887 35.3154593,77.4419887 L35.3154593,47.8583884 L42.57814,47.8583884 L50.2235093,47.8583884 L50.2235093,77.4419887 L68.26168,77.4419887 C72.94918,77.4419887 75.48828,74.902375 75.48828,70.263705 L75.48828,30.468825 L82.08008,35.986325 C82.47068,36.328125 82.86138,36.621125 83.44728,36.621125 C84.42388,36.621125 85.15628,35.986325 85.15628,35.058625 C85.15628,34.423825 84.91208,34.033225 84.37498,33.544925 L75.48828,26.074225 L75.48828,27.685525 L75.48828,26.074225 L68.74998,20.410225 L46.28908,1.464825 C43.99418,-0.488275 41.35738,-0.488275 39.01368,1.464825 L0.78128,33.544925 C0.24418,34.033225 0,34.472725 0,35.009825 C0,35.839825 0.68358,36.621125 1.70898,36.621125 C2.29488,36.621125 2.68558,36.328125 3.07618,35.986325 L9.71678,30.468825 L9.71678,70.263705 C9.71678,74.902375 12.0179245,77.4406178 16.94338,77.4419887 Z M53.17388,46.630925 C53.17388,45.214825 52.24608,44.287125 50.83008,44.287125 L34.32618,44.287125 C32.91018,44.287125 31.98238,45.214825 31.98238,46.630925 L31.98238,74.121122 L17.62698,74.121122 C14.45318,74.121122 12.98828,72.656275 12.98828,69.482445 L12.98828,27.685525 L40.96678,4.199225 C42.04098,3.320325 43.11528,3.173825 44.33598,4.199225 L72.16798,27.685525 L72.16798,69.482445 C72.16798,72.656275 70.75198,74.121122 67.57818,74.121122 L53.17388,74.121122 L53.17388,46.630925 Z" id="Shape"></path>
                </g>
                <g id="Ultralight-S" transform="translate(25.611120, 5.505325)">
                    <path d="M15.91798,76.3553621 L33.4274243,76.3553621 L33.4274243,46.6119176 L41.38184,46.6119176 L49.679908,46.6119176 L49.679908,76.3553621 L67.04098,76.3553621 C71.43558,76.3553621 73.73048,74.011247 73.73048,69.616715 L73.73048,28.698725 L80.81058,34.655825 C81.10348,34.899925 81.24998,34.997625 81.64058,34.997625 C82.32418,34.997625 82.76368,34.558125 82.76368,34.021025 C82.76368,33.581525 82.61718,33.288625 82.17778,32.946825 L73.73048,25.817925 L68.11528,21.081525 L44.72658,1.355025 C42.67578,-0.451675 40.38088,-0.451675 38.23238,1.355025 L0.58598,32.946825 C0.14649,33.288625 0,33.581525 0,33.972225 C0,34.558125 0.43948,34.997625 1.12308,34.997625 C1.51368,34.997625 1.70898,34.899925 1.95318,34.655825 L9.17968,28.601125 L9.17968,69.616715 C9.17968,74.060075 11.52348,76.3553621 15.91798,76.3553621 Z M51.80668,45.935025 C51.80668,44.616725 50.97658,43.786625 49.65818,43.786625 L33.10548,43.786625 C31.78708,43.786625 30.95708,44.616725 30.95708,45.935025 L30.95708,74.157731 L16.35738,74.157731 C12.89058,74.157731 11.42578,72.644059 11.42578,69.177265 L11.42578,26.745625 L39.69728,2.966325 C40.82028,2.038625 41.94338,1.843325 43.26168,2.966325 L71.53318,26.843325 L71.53318,69.177265 C71.53318,72.644059 70.01958,74.157731 66.60158,74.157731 L51.80668,74.157731 L51.80668,45.935025 Z" id="Shape"></path>
                </g>
            </g>
        </g>
    </g>
</svg>